<svg width="149" height="135" viewBox="0 0 149 135" fill="none" xmlns="http://www.w3.org/2000/svg">
<path d="M118.836 10.4557L145.79 57.1401C147.572 60.2261 148.51 63.7267 148.51 67.2901C148.51 70.8535 147.572 74.3542 145.79 77.4402L118.836 124.13C117.391 126.631 115.425 128.792 113.073 130.468L104.705 116.01C97.7853 104.024 95.91 89.7802 99.4917 76.4115C103.073 63.0428 111.819 51.6444 123.804 44.7233L124.154 44.5203L120.906 38.8701L120.55 39.0731C108.565 45.9926 94.3221 47.8678 80.9543 44.2861C67.5866 40.7043 56.1891 31.9591 49.2691 19.9741L44.1377 11.0816L38.465 14.3578L43.5964 23.2447C50.5162 35.2308 52.3915 49.4747 48.8098 62.8434C45.2281 76.2121 36.4828 87.6106 24.4974 94.5317L27.7736 100.199C33.7076 96.7701 40.2588 94.5439 47.0532 93.6473C53.8476 92.7506 60.7521 93.2012 67.3723 94.9732C73.9926 96.7451 80.199 99.8038 85.637 103.975C91.0751 108.145 95.6384 113.346 99.0662 119.281L107.203 133.378C105.28 133.972 103.278 134.276 101.265 134.28H47.3575C43.7948 134.28 40.2949 133.341 37.2097 131.56C34.1244 129.778 31.5624 127.216 29.7811 124.13L2.82713 77.4402C1.04543 74.3542 0.107422 70.8535 0.107422 67.2901C0.107422 63.7267 1.04543 60.2261 2.82713 57.1401L29.7811 10.4557C31.5624 7.37026 34.1244 4.80799 37.2097 3.02633C40.2949 1.24466 43.7948 0.306348 47.3575 0.305664L101.265 0.305664C104.827 0.307338 108.326 1.24612 111.41 3.02774C114.494 4.80936 117.055 7.37109 118.836 10.4557Z" fill="#151515"/>
</svg>
