<svg width="920" height="220" viewBox="0 0 920 220" fill="none" xmlns="http://www.w3.org/2000/svg">
<path d="M83.808 219.856C62.8693 219.856 45.2527 215.225 30.958 205.964C16.6633 196.501 6.59666 183.717 0.757996 167.61L36.394 146.772C44.6487 168.315 60.856 179.086 85.016 179.086C96.6933 179.086 105.25 176.972 110.686 172.744C116.122 168.516 118.84 163.181 118.84 156.738C118.84 149.289 115.518 143.551 108.874 139.524C102.23 135.296 90.3513 130.766 73.238 125.934C63.7753 123.115 55.722 120.297 49.078 117.478C42.6353 114.659 36.092 110.935 29.448 106.304C23.0053 101.472 18.0727 95.432 14.65 88.184C11.2273 80.936 9.516 72.48 9.516 62.816C9.516 43.6893 16.2607 28.4887 29.75 17.214C43.4407 5.738 59.8493 0 78.976 0C96.0893 0 111.089 4.228 123.974 12.684C137.061 20.9387 147.228 32.5153 154.476 47.414L119.444 67.648C110.988 49.528 97.4987 40.468 78.976 40.468C70.3187 40.468 63.4733 42.4813 58.44 46.508C53.608 50.3333 51.192 55.3667 51.192 61.608C51.192 68.252 53.91 73.688 59.346 77.916C64.9833 81.9427 75.654 86.372 91.358 91.204C97.8007 93.2173 102.633 94.828 105.854 96.036C109.277 97.0427 113.807 98.754 119.444 101.17C125.283 103.385 129.712 105.499 132.732 107.512C135.953 109.525 139.577 112.243 143.604 115.666C147.631 119.089 150.651 122.612 152.664 126.236C154.879 129.86 156.691 134.289 158.1 139.524C159.711 144.557 160.516 150.094 160.516 156.134C160.516 175.663 153.369 191.166 139.074 202.642C124.981 214.118 106.559 219.856 83.808 219.856Z" fill="black"/>
<path d="M306.587 196.904C291.085 212.205 272.159 219.856 249.811 219.856C227.463 219.856 208.538 212.205 193.035 196.904C177.734 181.401 170.083 162.476 170.083 140.128C170.083 117.78 177.734 98.9553 193.035 83.654C208.538 68.1514 227.463 60.4 249.811 60.4C272.159 60.4 291.085 68.1514 306.587 83.654C322.09 98.9553 329.841 117.78 329.841 140.128C329.841 162.476 322.09 181.401 306.587 196.904ZM220.517 170.026C228.369 177.878 238.134 181.804 249.811 181.804C261.489 181.804 271.253 177.878 279.105 170.026C286.957 162.174 290.883 152.208 290.883 140.128C290.883 128.048 286.957 118.082 279.105 110.23C271.253 102.378 261.489 98.452 249.811 98.452C238.134 98.452 228.369 102.378 220.517 110.23C212.867 118.082 209.041 128.048 209.041 140.128C209.041 152.208 212.867 162.174 220.517 170.026Z" fill="black"/>
<path d="M444.828 64.628H483.786V215.628H444.828V198.716C435.365 212.809 420.366 219.856 399.83 219.856C383.32 219.856 369.63 214.319 358.758 203.246C348.087 192.173 342.752 176.871 342.752 157.342V64.628H381.71V152.51C381.71 162.577 384.428 170.328 389.864 175.764C395.3 180.999 402.548 183.616 411.608 183.616C421.674 183.616 429.728 180.495 435.768 174.254C441.808 168.013 444.828 158.651 444.828 146.168V64.628Z" fill="black"/>
<path d="M593.759 102.076H559.633V164.892C559.633 170.127 560.941 173.952 563.559 176.368C566.176 178.784 570.001 180.193 575.035 180.596C580.068 180.797 586.309 180.697 593.759 180.294V215.628C566.981 218.648 548.056 216.131 536.983 208.078C526.111 200.025 520.675 185.629 520.675 164.892V102.076H480V64.628H520.675V4.228H559.633V64.628H593.759V102.076Z" fill="black"/>
<path d="M693.102 60.4C709.612 60.4 723.202 65.9367 733.872 77.01C744.744 88.0833 750.18 103.385 750.18 122.914V215.628H711.222V127.746C711.222 117.679 708.504 110.029 703.068 104.794C697.632 99.358 690.384 96.64 681.324 96.64C671.258 96.64 663.204 99.7607 657.164 106.002C651.124 112.243 648.104 121.605 648.104 134.088V215.628H609.146V4.228H648.104V81.54C657.567 67.4467 672.566 60.4 693.102 60.4Z" fill="black"/>
<path d="M878.877 156.134C873.643 175.059 859.449 184.522 836.295 184.522C821.397 184.522 810.122 179.489 802.471 169.422L771.063 187.542C785.962 209.085 807.907 219.856 836.899 219.856C861.865 219.856 881.897 212.306 896.997 197.206C912.097 182.106 919.647 163.08 919.647 140.128C919.647 117.377 912.198 98.452 897.299 83.352C882.401 68.0506 863.274 60.4 839.919 60.4C817.773 60.4 799.552 68.0506 785.257 83.352C770.761 98.6533 763.513 117.579 763.513 140.128C763.513 145.161 764.017 150.497 765.023 156.134H878.877ZM879.481 125.934H802.471C804.686 115.666 809.317 108.015 816.363 102.982C823.209 97.9486 831.061 95.432 839.919 95.432C850.389 95.432 859.046 98.15 865.891 103.586C872.737 108.821 877.267 116.27 879.481 125.934Z" fill="black"/>
<mask id="mask0_183_15" style="mask-type:alpha" maskUnits="userSpaceOnUse" x="0" y="0" width="920" height="220">
<path d="M83.808 219.856C62.8693 219.856 45.2527 215.225 30.958 205.964C16.6633 196.501 6.59666 183.717 0.757996 167.61L36.394 146.772C44.6487 168.315 60.856 179.086 85.016 179.086C96.6933 179.086 105.25 176.972 110.686 172.744C116.122 168.516 118.84 163.181 118.84 156.738C118.84 149.289 115.518 143.551 108.874 139.524C102.23 135.296 90.3513 130.766 73.238 125.934C63.7753 123.115 55.722 120.297 49.078 117.478C42.6353 114.659 36.092 110.935 29.448 106.304C23.0053 101.472 18.0727 95.432 14.65 88.184C11.2273 80.936 9.516 72.48 9.516 62.816C9.516 43.6893 16.2607 28.4887 29.75 17.214C43.4407 5.738 59.8493 0 78.976 0C96.0893 0 111.089 4.228 123.974 12.684C137.061 20.9387 147.228 32.5153 154.476 47.414L119.444 67.648C110.988 49.528 97.4987 40.468 78.976 40.468C70.3187 40.468 63.4733 42.4813 58.44 46.508C53.608 50.3333 51.192 55.3667 51.192 61.608C51.192 68.252 53.91 73.688 59.346 77.916C64.9833 81.9427 75.654 86.372 91.358 91.204C97.8007 93.2173 102.633 94.828 105.854 96.036C109.277 97.0427 113.807 98.754 119.444 101.17C125.283 103.385 129.712 105.499 132.732 107.512C135.953 109.525 139.577 112.243 143.604 115.666C147.631 119.089 150.651 122.612 152.664 126.236C154.879 129.86 156.691 134.289 158.1 139.524C159.711 144.557 160.516 150.094 160.516 156.134C160.516 175.663 153.369 191.166 139.074 202.642C124.981 214.118 106.559 219.856 83.808 219.856Z" fill="#B95E5E"/>
<path d="M306.587 196.904C291.085 212.205 272.159 219.856 249.811 219.856C227.463 219.856 208.538 212.205 193.035 196.904C177.734 181.401 170.083 162.476 170.083 140.128C170.083 117.78 177.734 98.9553 193.035 83.654C208.538 68.1514 227.463 60.4 249.811 60.4C272.159 60.4 291.085 68.1514 306.587 83.654C322.09 98.9553 329.841 117.78 329.841 140.128C329.841 162.476 322.09 181.401 306.587 196.904ZM220.517 170.026C228.369 177.878 238.134 181.804 249.811 181.804C261.489 181.804 271.253 177.878 279.105 170.026C286.957 162.174 290.883 152.208 290.883 140.128C290.883 128.048 286.957 118.082 279.105 110.23C271.253 102.378 261.489 98.452 249.811 98.452C238.134 98.452 228.369 102.378 220.517 110.23C212.867 118.082 209.041 128.048 209.041 140.128C209.041 152.208 212.867 162.174 220.517 170.026Z" fill="#B95E5E"/>
<path d="M444.828 64.628H483.786V215.628H444.828V198.716C435.365 212.809 420.366 219.856 399.83 219.856C383.32 219.856 369.63 214.319 358.758 203.246C348.087 192.173 342.752 176.871 342.752 157.342V64.628H381.71V152.51C381.71 162.577 384.428 170.328 389.864 175.764C395.3 180.999 402.548 183.616 411.608 183.616C421.674 183.616 429.728 180.495 435.768 174.254C441.808 168.013 444.828 158.651 444.828 146.168V64.628Z" fill="#B95E5E"/>
<path d="M593.759 102.076H559.633V164.892C559.633 170.127 560.941 173.952 563.559 176.368C566.176 178.784 570.001 180.193 575.035 180.596C580.068 180.797 586.309 180.697 593.759 180.294V215.628C566.981 218.648 548.056 216.131 536.983 208.078C526.111 200.025 520.675 185.629 520.675 164.892V102.076H480V64.628H520.675V4.228H559.633V64.628H593.759V102.076Z" fill="#B95E5E"/>
<path d="M693.102 60.4C709.612 60.4 723.202 65.9367 733.872 77.01C744.744 88.0833 750.18 103.385 750.18 122.914V215.628H711.222V127.746C711.222 117.679 708.504 110.029 703.068 104.794C697.632 99.358 690.384 96.64 681.324 96.64C671.258 96.64 663.204 99.7607 657.164 106.002C651.124 112.243 648.104 121.605 648.104 134.088V215.628H609.146V4.228H648.104V81.54C657.567 67.4467 672.566 60.4 693.102 60.4Z" fill="#B95E5E"/>
<path d="M878.877 156.134C873.643 175.059 859.449 184.522 836.295 184.522C821.397 184.522 810.122 179.489 802.471 169.422L771.063 187.542C785.962 209.085 807.907 219.856 836.899 219.856C861.865 219.856 881.897 212.306 896.997 197.206C912.097 182.106 919.647 163.08 919.647 140.128C919.647 117.377 912.198 98.452 897.299 83.352C882.401 68.0506 863.274 60.4 839.919 60.4C817.773 60.4 799.552 68.0506 785.257 83.352C770.761 98.6533 763.513 117.579 763.513 140.128C763.513 145.161 764.017 150.497 765.023 156.134H878.877ZM879.481 125.934H802.471C804.686 115.666 809.317 108.015 816.363 102.982C823.209 97.9486 831.061 95.432 839.919 95.432C850.389 95.432 859.046 98.15 865.891 103.586C872.737 108.821 877.267 116.27 879.481 125.934Z" fill="#B95E5E"/>
</mask>
<g mask="url(#mask0_183_15)">
<g filter="url(#filter0_f_183_15)">
<ellipse cx="730.5" cy="115.628" rx="334.5" ry="299" fill="url(#paint0_linear_183_15)"/>
</g>
</g>
<defs>
<filter id="filter0_f_183_15" x="216" y="-363.372" width="1029" height="958" filterUnits="userSpaceOnUse" color-interpolation-filters="sRGB">
<feFlood flood-opacity="0" result="BackgroundImageFix"/>
<feBlend mode="normal" in="SourceGraphic" in2="BackgroundImageFix" result="shape"/>
<feGaussianBlur stdDeviation="90" result="effect1_foregroundBlur_183_15"/>
</filter>
<linearGradient id="paint0_linear_183_15" x1="730.5" y1="-183.372" x2="730.5" y2="414.628" gradientUnits="userSpaceOnUse">
<stop stop-color="#E7CF62"/>
<stop offset="1" stop-color="#E63E3E"/>
</linearGradient>
</defs>
</svg>
