<svg width="81" height="20" viewBox="0 0 81 20" fill="none" xmlns="http://www.w3.org/2000/svg">
<path d="M7.32085 19.5C5.47511 19.5 3.9222 19.0998 2.66213 18.2994C1.40205 17.4817 0.514678 16.3768 0 14.9849L3.14131 13.1841C3.86896 15.0458 5.29763 15.9766 7.42734 15.9766C8.45669 15.9766 9.21096 15.794 9.69014 15.4286C10.1693 15.0632 10.4089 14.6021 10.4089 14.0453C10.4089 13.4016 10.1161 12.9057 9.53042 12.5577C8.94475 12.1923 7.89764 11.8008 6.38911 11.3832C5.55497 11.1397 4.84507 10.8961 4.2594 10.6525C3.69148 10.4089 3.11469 10.087 2.52902 9.68681C1.9611 9.26923 1.52629 8.74725 1.22458 8.12088C0.922871 7.4945 0.772017 6.76374 0.772017 5.92857C0.772017 4.27564 1.36656 2.962 2.55564 1.98764C3.76247 0.995879 5.2089 0.5 6.89491 0.5C8.40345 0.5 9.72564 0.865385 10.8615 1.59615C12.0151 2.30952 12.9113 3.30998 13.5502 4.59753L10.4622 6.34615C9.71676 4.78022 8.52768 3.99725 6.89491 3.99725C6.13177 3.99725 5.52835 4.17125 5.08466 4.51923C4.65872 4.84982 4.44575 5.2848 4.44575 5.82417C4.44575 6.39835 4.68534 6.86813 5.16453 7.23352C5.66146 7.5815 6.60208 7.96429 7.98638 8.38187C8.5543 8.55586 8.98024 8.69506 9.2642 8.79945C9.56591 8.88645 9.96523 9.03434 10.4622 9.24313C10.9768 9.43452 11.3673 9.61722 11.6335 9.79121C11.9175 9.9652 12.2369 10.2001 12.5919 10.4959C12.9468 10.7917 13.213 11.0962 13.3905 11.4093C13.5857 11.7225 13.7455 12.1053 13.8697 12.5577C14.0117 12.9927 14.0827 13.4712 14.0827 13.9931C14.0827 15.6809 13.4526 17.0206 12.1925 18.0124C10.9502 19.0041 9.32632 19.5 7.32085 19.5Z" fill="#212121"/>
<path d="M26.9588 17.5165C25.5923 18.8388 23.924 19.5 21.954 19.5C19.984 19.5 18.3158 18.8388 16.9492 17.5165C15.6004 16.1767 14.926 14.5412 14.926 12.6099C14.926 10.6786 15.6004 9.05174 16.9492 7.7294C18.3158 6.38965 19.984 5.71978 21.954 5.71978C23.924 5.71978 25.5923 6.38965 26.9588 7.7294C28.3254 9.05174 29.0087 10.6786 29.0087 12.6099C29.0087 14.5412 28.3254 16.1767 26.9588 17.5165ZM19.3718 15.1937C20.0639 15.8723 20.9247 16.2115 21.954 16.2115C22.9834 16.2115 23.8441 15.8723 24.5363 15.1937C25.2284 14.5151 25.5745 13.6538 25.5745 12.6099C25.5745 11.5659 25.2284 10.7047 24.5363 10.0261C23.8441 9.34753 22.9834 9.00824 21.954 9.00824C20.9247 9.00824 20.0639 9.34753 19.3718 10.0261C18.6974 10.7047 18.3601 11.5659 18.3601 12.6099C18.3601 13.6538 18.6974 14.5151 19.3718 15.1937Z" fill="#212121"/>
<path d="M39.1447 6.08517H42.5789V19.1346H39.1447V17.6731C38.3106 18.891 36.9884 19.5 35.1781 19.5C33.7228 19.5 32.516 19.0215 31.5576 18.0646C30.617 17.1076 30.1467 15.7853 30.1467 14.0975V6.08517H33.5809V13.6799C33.5809 14.5499 33.8205 15.2198 34.2996 15.6896C34.7788 16.1419 35.4177 16.3681 36.2164 16.3681C37.1037 16.3681 37.8136 16.0984 38.3461 15.5591C38.8785 15.0197 39.1447 14.2106 39.1447 13.1319V6.08517Z" fill="#212121"/>
<path d="M52.2729 9.32143H49.2647V14.75C49.2647 15.2024 49.3801 15.533 49.6108 15.7418C49.8415 15.9505 50.1787 16.0723 50.6224 16.1071C51.0661 16.1245 51.6163 16.1158 52.2729 16.081V19.1346C49.9125 19.3956 48.2443 19.1781 47.2682 18.4821C46.3098 17.7862 45.8306 16.5421 45.8306 14.75V9.32143H42.2451V6.08517H45.8306V0.865385H49.2647V6.08517H52.2729V9.32143Z" fill="#212121"/>
<path d="M61.0301 5.71978C62.4854 5.71978 63.6833 6.19826 64.624 7.15522C65.5823 8.11218 66.0615 9.43452 66.0615 11.1223V19.1346H62.6274V11.5398C62.6274 10.6699 62.3878 10.0087 61.9086 9.55632C61.4294 9.08654 60.7905 8.85165 59.9919 8.85165C59.1045 8.85165 58.3946 9.12134 57.8622 9.66071C57.3297 10.2001 57.0635 11.0092 57.0635 12.0879V19.1346H53.6294V0.865385H57.0635V7.5467C57.8977 6.32875 59.2198 5.71978 61.0301 5.71978Z" fill="#212121"/>
<path d="M77.4061 13.9931C76.9447 15.6287 75.6935 16.4464 73.6525 16.4464C72.3392 16.4464 71.3453 16.0114 70.6709 15.1415L67.9023 16.7074C69.2157 18.5691 71.1501 19.5 73.7058 19.5C75.9065 19.5 77.6723 18.8475 79.0034 17.5426C80.3345 16.2376 81 14.5934 81 12.6099C81 10.6438 80.3433 9.00824 79.03 7.70329C77.7167 6.38095 76.0307 5.71978 73.972 5.71978C72.0198 5.71978 70.4136 6.38095 69.1535 7.70329C67.8757 9.02564 67.2368 10.6612 67.2368 12.6099C67.2368 13.0449 67.2812 13.506 67.3699 13.9931H77.4061ZM77.4594 11.3832H70.6709C70.8662 10.4959 71.2744 9.8347 71.8955 9.39972C72.4989 8.96474 73.1911 8.74725 73.972 8.74725C74.8949 8.74725 75.658 8.98214 76.2614 9.45192C76.8648 9.9043 77.2641 10.5481 77.4594 11.3832Z" fill="#212121"/>
</svg>
